@startuml

class Party <<archetype>> {
{field} <<o>> description: str
{field} name: str
{method} identifier(): PartyIdentifier
{method} registered_identifiers(): List[PartyIdentifier]
{method} addresses(): List[Addresses]
{method} preferences(): List[Preference]
}


class UniqueIdentifier <<archetype>>
class PartyIdentifier <<archetype>>
class PartySignature <<archetype>>
class PartyAuthentication <<archetype>>

UniqueIdentifier <|-down- PartyIdentifier

PartyIdentifier "1" <-* "1" PartySignature
PartySignature "1" *--> "1" PartyAuthentication

class Address <<archetype>>

Party "1" *-up-> "1" PartyIdentifier
Party "1" *-up-> "0..*" PartyAuthentication : <<o>>

Address -[hidden]up- PartyAuthentication


together {
class Preference <<archetype>>
package {
class PartyRelationshipArchetypePattern <<archetype>>
}
class RegisteredIdentifier <<archetype>>
}

Preference -[hidden]down- PartyRelationshipArchetypePattern
PartyRelationshipArchetypePattern -[hidden]down- RegisteredIdentifier


Party "1..*" -right- "0..*" Address
Party "1" *-left-> "0..*" Preference : <<o>>
Party .left.> PartyRelationshipArchetypePattern
Party <.left. PartyRelationshipArchetypePattern
RegisteredIdentifier "1" *-up-> "0..*" Party : <<o>>

Preference -[hidden]down- PartyRelationshipArchetypePattern

together {
class Organization <<archetype>>
class OrganizationName <<archetype>>
}
Organization "1" *-down-> "1" OrganizationName
Organization "1" *-down-> "0..*" OrganizationName : <<o>> otherOrganizationNames

Party <|-down- Organization

together {
class Person <<archetype>>
class PersonName <<archetype>>
}
Person "1" *-down-> "1" PersonName
Person "1" *-down-> "0..*" PersonName : <<o>> otherPersonNames

Party <|-down- Person

@enduml
